<mxfile host="app.diagrams.net" modified="2023-04-24T13:19:55.025Z" agent="Mozilla/5.0 (Macintosh; Intel Mac OS X 10_15_7) AppleWebKit/605.1.15 (KHTML, like Gecko) Version/16.4 Safari/605.1.15" etag="rwQCzmktapr1q3vGDqKx" version="21.2.0" type="github">
  <diagram name="第 1 页" id="_44hsCMh0kwW0n-OsUm_">
    <mxGraphModel dx="954" dy="560" grid="1" gridSize="10" guides="1" tooltips="1" connect="1" arrows="1" fold="1" page="1" pageScale="1" pageWidth="1654" pageHeight="2336" math="0" shadow="0">
      <root>
        <mxCell id="0" />
        <mxCell id="1" parent="0" />
        <mxCell id="pZLuwGBEcK4U3wzPfltz-15" style="edgeStyle=orthogonalEdgeStyle;rounded=0;orthogonalLoop=1;jettySize=auto;html=1;exitX=0.5;exitY=0;exitDx=0;exitDy=0;entryX=0;entryY=0.5;entryDx=0;entryDy=0;" edge="1" parent="1" source="pZLuwGBEcK4U3wzPfltz-1" target="pZLuwGBEcK4U3wzPfltz-2">
          <mxGeometry relative="1" as="geometry" />
        </mxCell>
        <mxCell id="pZLuwGBEcK4U3wzPfltz-16" style="edgeStyle=orthogonalEdgeStyle;rounded=0;orthogonalLoop=1;jettySize=auto;html=1;exitX=0.5;exitY=1;exitDx=0;exitDy=0;entryX=0;entryY=0.5;entryDx=0;entryDy=0;" edge="1" parent="1" source="pZLuwGBEcK4U3wzPfltz-1" target="pZLuwGBEcK4U3wzPfltz-5">
          <mxGeometry relative="1" as="geometry" />
        </mxCell>
        <mxCell id="pZLuwGBEcK4U3wzPfltz-17" style="edgeStyle=orthogonalEdgeStyle;rounded=0;orthogonalLoop=1;jettySize=auto;html=1;exitX=1;exitY=0.5;exitDx=0;exitDy=0;entryX=0;entryY=0.5;entryDx=0;entryDy=0;" edge="1" parent="1" source="pZLuwGBEcK4U3wzPfltz-1" target="pZLuwGBEcK4U3wzPfltz-4">
          <mxGeometry relative="1" as="geometry" />
        </mxCell>
        <mxCell id="pZLuwGBEcK4U3wzPfltz-1" value="中文模式下&lt;br&gt;输入分号&lt;br&gt;进入临时英文模式" style="rounded=1;whiteSpace=wrap;html=1;fillColor=#1ba1e2;fontColor=#ffffff;strokeColor=#006EAF;" vertex="1" parent="1">
          <mxGeometry x="130" y="220" width="120" height="60" as="geometry" />
        </mxCell>
        <mxCell id="pZLuwGBEcK4U3wzPfltz-14" value="" style="edgeStyle=orthogonalEdgeStyle;rounded=0;orthogonalLoop=1;jettySize=auto;html=1;" edge="1" parent="1" source="pZLuwGBEcK4U3wzPfltz-2" target="pZLuwGBEcK4U3wzPfltz-13">
          <mxGeometry relative="1" as="geometry" />
        </mxCell>
        <mxCell id="pZLuwGBEcK4U3wzPfltz-2" value="输入英文字母或标点符号(如: abc,.;)" style="rounded=1;whiteSpace=wrap;html=1;fillColor=#6a00ff;fontColor=#ffffff;strokeColor=#3700CC;" vertex="1" parent="1">
          <mxGeometry x="370" y="120" width="120" height="60" as="geometry" />
        </mxCell>
        <mxCell id="pZLuwGBEcK4U3wzPfltz-10" value="" style="edgeStyle=orthogonalEdgeStyle;rounded=0;orthogonalLoop=1;jettySize=auto;html=1;" edge="1" parent="1" source="pZLuwGBEcK4U3wzPfltz-4" target="pZLuwGBEcK4U3wzPfltz-9">
          <mxGeometry relative="1" as="geometry" />
        </mxCell>
        <mxCell id="pZLuwGBEcK4U3wzPfltz-4" value="输入空格" style="rounded=1;whiteSpace=wrap;html=1;fillColor=#6a00ff;fontColor=#ffffff;strokeColor=#3700CC;" vertex="1" parent="1">
          <mxGeometry x="370" y="220" width="120" height="60" as="geometry" />
        </mxCell>
        <mxCell id="pZLuwGBEcK4U3wzPfltz-12" value="" style="edgeStyle=orthogonalEdgeStyle;rounded=0;orthogonalLoop=1;jettySize=auto;html=1;" edge="1" parent="1" source="pZLuwGBEcK4U3wzPfltz-5" target="pZLuwGBEcK4U3wzPfltz-11">
          <mxGeometry relative="1" as="geometry" />
        </mxCell>
        <mxCell id="pZLuwGBEcK4U3wzPfltz-5" value="输入分号" style="rounded=1;whiteSpace=wrap;html=1;fillColor=#6a00ff;fontColor=#ffffff;strokeColor=#3700CC;" vertex="1" parent="1">
          <mxGeometry x="370" y="330" width="120" height="60" as="geometry" />
        </mxCell>
        <mxCell id="pZLuwGBEcK4U3wzPfltz-9" value="输出半角分号" style="ellipse;whiteSpace=wrap;html=1;rounded=1;fillColor=#008a00;fontColor=#ffffff;strokeColor=#005700;" vertex="1" parent="1">
          <mxGeometry x="590" y="210" width="80" height="80" as="geometry" />
        </mxCell>
        <mxCell id="pZLuwGBEcK4U3wzPfltz-11" value="输出全角分号" style="ellipse;whiteSpace=wrap;html=1;rounded=1;fillColor=#008a00;fontColor=#ffffff;strokeColor=#005700;" vertex="1" parent="1">
          <mxGeometry x="590" y="320" width="80" height="80" as="geometry" />
        </mxCell>
        <mxCell id="pZLuwGBEcK4U3wzPfltz-13" value="输出字母或半角符号&lt;br&gt;(如: abc,.;)" style="ellipse;whiteSpace=wrap;html=1;rounded=1;fillColor=#008a00;fontColor=#ffffff;strokeColor=#005700;" vertex="1" parent="1">
          <mxGeometry x="590" y="110" width="80" height="80" as="geometry" />
        </mxCell>
      </root>
    </mxGraphModel>
  </diagram>
</mxfile>
